<svg t="1624582688023" class="icon" viewBox="0 0 1367 1024" version="1.1" xmlns="http://www.w3.org/2000/svg" p-id="39824" width="200" height="200"><path d="M411.517417 570.436745v-0.475086c22.700371-3.2453 40.148041-22.767285 40.148041-46.364295 0-23.597011-17.447669-43.118996-40.148041-46.364296v-0.475085H284.381955c-25.868721 0-46.839381-20.97066-46.839381-46.839381s20.97066-46.839381 46.839381-46.839381h160.592162c25.868721 0 46.839381-20.97066 46.839381-46.83938s-20.97066-46.839381-46.839381-46.839381h-80.296081c-25.868721 0-46.839381-20.97066-46.839381-46.839381s20.97066-46.839381 46.839381-46.839381h709.282052c25.868721 0 46.839381 20.97066 46.839381 46.839381s-20.97066 46.839381-46.839381 46.839381h-187.357523c-25.868721 0-46.839381 20.97066-46.839381 46.839381s20.97066 46.839381 46.839381 46.83938h240.888244c25.868721 0 46.839381 20.97066 46.839381 46.839381s-20.97066 46.839381-46.839381 46.839381h-160.592163c-25.868721 0-46.839381 20.97066-46.839381 46.839381s20.97066 46.839381 46.839381 46.839381h197.394533c25.868721 0 46.839381 20.97066 46.839381 46.83938v6.69134c0 25.868721-20.97066 46.839381-46.839381 46.839381h-217.468553c-25.868721 0-46.839381 20.97066-46.839381 46.839381s20.97066 46.839381 46.839381 46.839381h217.468553c25.868721 0 46.839381 20.97066 46.839381 46.839381s-20.97066 46.839381-46.839381 46.83938H364.678036c-25.868721 0-46.839381-20.97066-46.839381-46.83938s20.97066-46.839381 46.839381-46.839381h80.296081c25.868721 0 46.839381-20.97066 46.839381-46.839381s-20.97066-46.839381-46.839381-46.839381H46.839381c-25.868721 0-46.839381-20.97066-46.839381-46.839381v-6.69134c0-25.868721 20.97066-46.839381 46.839381-46.83938h364.678036z" fill="#E2EBF9" p-id="39825"></path><path d="M301.110305 71.931906m-26.76536 0a26.76536 26.76536 0 1 0 53.53072 0 26.76536 26.76536 0 1 0-53.53072 0Z" fill="#1767FB" p-id="39826"></path><path d="M812.997824 56.876391a28.438195 28.438195 0 1 0 0-56.876391 28.438195 28.438195 0 0 0 0 56.876391z m0-3.34567a25.092525 25.092525 0 1 1 0-50.185051 25.092525 25.092525 0 0 1 0 50.185051zM699.245042 284.381955a25.092525 25.092525 0 1 0 0-50.185051 25.092525 25.092525 0 0 0 0 50.185051z m0-3.34567a21.746855 21.746855 0 1 1 0-43.493711 21.746855 21.746855 0 0 1 0 43.493711zM404.826077 361.332366a28.438195 28.438195 0 1 0 0-56.876391 28.438195 28.438195 0 0 0 0 56.876391z m0-3.34567a25.092525 25.092525 0 1 1 0-50.185051 25.092525 25.092525 0 0 1 0 50.185051zM1033.812047 535.307209a25.092525 25.092525 0 1 0 0-50.185051 25.092525 25.092525 0 0 0 0 50.185051z m0-3.34567a21.746855 21.746855 0 1 1 0-43.493711 21.746855 21.746855 0 0 1 0 43.493711z" fill="#1767FB" p-id="39827"></path><path d="M1241.243591 769.504113a31.783866 31.783866 0 1 0 0-63.567731 31.783866 31.783866 0 0 0 0 63.567731z m0-3.34567a28.438195 28.438195 0 1 1 0-56.876391 28.438195 28.438195 0 0 1 0 56.876391z" fill="#C7C7C7" p-id="39828"></path><path d="M950.170296 276.01778h13.38268v6.69134h-13.38268v13.38268h-6.69134v-13.38268h-13.38268v-6.69134h13.38268v-13.382681h6.69134v13.382681zM986.972667 81.968916h13.38268v6.69134h-13.38268v13.382681h-6.691341v-13.382681h-13.38268v-6.69134h13.38268v-13.38268h6.691341v13.38268zM625.6403 41.820876h13.382681v6.69134h-13.382681v13.38268h-6.69134v-13.38268h-13.38268v-6.69134h13.38268v-13.382681h6.69134v13.382681zM371.369376 516.906024h13.38268v6.69134h-13.38268v13.38268h-6.69134v-13.38268h-13.38268v-6.69134h13.38268v-13.382681h6.69134v13.382681zM679.773242 350.291655a30.124413 30.124413 0 1 1 58.826917-0.87322C792.726409 361.944624 833.071844 410.456839 833.071844 468.393808v102.042937c26.76536 26.76536 44.607819 48.512216 53.530721 65.240566H531.961539c17.842458-40.148041 36.802371-61.894896 56.876391-65.240566V468.393808c0-56.665614 38.59565-104.317992 90.935312-118.102153zM675.825351 650.732826h66.913401c0 18.478136-14.978565 33.456701-33.4567 33.4567s-33.456701-14.978565-33.456701-33.4567z" fill="#1767FB" p-id="39829"></path><path d="M334.567006 864.855709m6.69134 0l695.899371 0q6.69134 0 6.69134 6.691341l0 0q0 6.69134-6.69134 6.69134l-695.899371 0q-6.69134 0-6.69134-6.69134l0 0q0-6.69134 6.69134-6.691341Z" fill="#E6EDF8" p-id="39830"></path><path d="M575.45525 938.460451m6.69134 0l531.961539 0q6.69134 0 6.69134 6.69134l0 0q0 6.69134-6.69134 6.69134l-531.961539 0q-6.69134 0-6.69134-6.69134l0 0q0-6.69134 6.69134-6.69134Z" fill="#E6EDF8" p-id="39831"></path><path d="M438.282777 894.96674m6.69134 0l321.184326 0q6.69134 0 6.69134 6.69134l0 0q0 6.69134-6.69134 6.69134l-321.184326 0q-6.69134 0-6.69134-6.69134l0 0q0-6.69134 6.69134-6.69134Z" fill="#E6EDF8" p-id="39832"></path><path d="M812.997824 894.96674m6.69134 0l187.357523 0q6.69134 0 6.69134 6.69134l0 0q0 6.69134-6.69134 6.69134l-187.357523 0q-6.69134 0-6.69134-6.69134l0 0q0-6.69134 6.69134-6.69134Z" fill="#E6EDF8" p-id="39833"></path><path d="M304.455975 938.460451m6.69134 0l153.900823 0q6.69134 0 6.69134 6.69134l0 0q0 6.69134-6.69134 6.69134l-153.900823 0q-6.69134 0-6.69134-6.69134l0 0q0-6.69134 6.69134-6.69134Z" fill="#E6EDF8" p-id="39834"></path><path d="M1070.614418 864.855709m6.69134 0l53.530721 0q6.69134 0 6.69134 6.691341l0 0q0 6.69134-6.69134 6.69134l-53.530721 0q-6.69134 0-6.69134-6.69134l0 0q0-6.69134 6.69134-6.691341Z" fill="#E6EDF8" p-id="39835"></path></svg>