<svg t="1624525674819" class="icon" viewBox="0 0 1024 1024" version="1.1" xmlns="http://www.w3.org/2000/svg" p-id="34752" width="200" height="200"><path d="M516.077361 305.219568c226.584755 0 409.774744 185.519909 409.774744 415.017065a430.161547 430.161547 0 0 1-6.116041 72.518771c0.58248 2.32992-808.191126-0.58248-808.191127-2.03868a434.238908 434.238908 0 0 1-6.116041-70.480091c0.58248-228.914676 184.063709-415.017065 410.648465-415.017065z" fill="#5EC562" fill-opacity=".05" p-id="34753"></path><path d="M516.077361 392.882821c185.519909 0 336.382253 152.609784 336.382252 340.750854a357.351536 357.351536 0 0 1-4.951081 59.121729c0.58248 1.74744-662.862344-0.58248-662.862343-1.4562a321.23777 321.23777 0 0 1-4.951081-57.665529c0-188.141069 150.862344-340.750853 336.382253-340.750854z" fill="#5EC562" fill-opacity=".1" p-id="34754"></path><path d="M516.077361 491.321957c140.377702 0 253.96132 115.331058 253.961319 256.87372a226.293515 226.293515 0 0 1-3.78612 44.559727c0.58248 1.16496-500.932878 0-500.932879-0.87372a267.649602 267.649602 0 0 1-4.07736-43.686007c0.58248-141.542662 114.457338-256.87372 254.83504-256.87372z" fill="#5EC562" fill-opacity=".2" p-id="34755"></path><path d="M185.519909 328.518771A11.067122 11.067122 0 1 0 174.744027 317.45165a11.067122 11.067122 0 0 0 10.775882 11.067121zM25.920364 792.755404H6.698521a4.659841 4.659841 0 0 0-4.368601 4.659841 4.659841 4.659841 0 0 0 4.368601 4.3686h19.221843a4.659841 4.659841 0 0 0 4.368601-4.3686 4.659841 4.659841 0 0 0-4.368601-4.659841z m892.068259 0H383.85438a4.659841 4.659841 0 0 0 0 9.028441h534.134243a4.659841 4.659841 0 0 0 4.368601-4.3686 4.659841 4.659841 0 0 0-4.368601-4.659841z m5.242321-71.936291h-242.020478a4.368601 4.368601 0 1 0 0 8.737201H923.230944a4.368601 4.368601 0 0 0 0-8.737201z m-636.359499 8.737201h101.351536a4.368601 4.368601 0 0 0 0-8.737201H286.871445a4.368601 4.368601 0 0 0 0 8.737201z m593.838453-474.721274l17.183162-16.309443a4.951081 4.951081 0 0 0 0-6.116041 4.077361 4.077361 0 0 0-6.116041 0l-17.183162 16.309443a4.368601 4.368601 0 0 0 6.116041 6.116041z m-20.969284 11.649602l-17.183162 16.309442a4.951081 4.951081 0 0 0 0 6.116041 4.077361 4.077361 0 0 0 6.116041 0l17.183162-16.309442a4.368601 4.368601 0 0 0-6.116041-6.116041z m14.853243-2.329921a4.659841 4.659841 0 0 0 0 6.407281l15.435722 17.183163a4.077361 4.077361 0 0 0 6.116041 0 4.077361 4.077361 0 0 0 0-6.116041l-15.435722-17.474403a4.951081 4.951081 0 0 0-6.116041 0z m-17.183163-9.319681a4.077361 4.077361 0 0 0 6.116041 0 4.077361 4.077361 0 0 0 0-6.116041l-15.435722-17.474403a3.786121 3.786121 0 0 0-5.824801 0 4.368601 4.368601 0 0 0 0 6.116041l15.144482 17.474403zM214.352673 583.645051l16.891923-16.309442a4.368601 4.368601 0 0 0 0-6.116041 4.077361 4.077361 0 0 0-5.824801 0l-17.183162 16.309442a4.368601 4.368601 0 1 0 6.11604 6.116041z m-20.969283 11.649602l-17.183162 16.309443a4.951081 4.951081 0 0 0 0 6.116041 4.368601 4.368601 0 0 0 6.11604 0l17.183163-16.018203a5.242321 5.242321 0 0 0 0-6.407281 4.951081 4.951081 0 0 0-6.116041 0z m14.853243-2.62116a4.368601 4.368601 0 0 0 0 6.116041l15.435722 17.183162a4.368601 4.368601 0 0 0 6.116041 0.29124 4.951081 4.951081 0 0 0 0-6.116041l-15.435723-17.183162a4.368601 4.368601 0 0 0-6.11604 0z m-32.036405-33.201366a5.242321 5.242321 0 0 0 0 6.407281l15.435722 17.183163a4.077361 4.077361 0 0 0 6.116041 0 4.077361 4.077361 0 0 0 0-6.116041l-15.435723-17.474403a7.572241 7.572241 0 0 0-6.11604 0z m449.38339 170.084187h23.881683a4.368601 4.368601 0 0 0 0-8.737201h-23.881683a4.659841 4.659841 0 0 0-4.368601 4.3686 4.368601 4.368601 0 0 0 4.368601 4.368601zM198.334471 725.187713a4.659841 4.659841 0 0 0 4.368601 4.368601h58.539249a4.368601 4.368601 0 0 0 0-8.737201H202.703072a4.659841 4.659841 0 0 0-4.368601 4.3686z m818.967008 67.567691h-54.170649a4.659841 4.659841 0 0 0 0 9.028441h54.170649a4.659841 4.659841 0 0 0 0-9.028441z m-648.300341 0h-19.804323a4.659841 4.659841 0 0 0 0 9.028441h19.221843a4.659841 4.659841 0 0 0 4.3686-4.3686 3.786121 3.786121 0 0 0-3.78612-4.659841z m-43.394767 0H40.773606a4.659841 4.659841 0 0 0 0 9.028441h284.832765a4.951081 4.951081 0 0 0 4.368601-4.3686 4.659841 4.659841 0 0 0-4.368601-4.659841z" fill="#5EC562" p-id="34756"></path><path d="M516.077361 221.924915a221.051195 221.051195 0 1 0 220.759954 221.051194 221.051195 221.051195 0 0 0-220.759954-221.051194z m145.620022 135.135381c-113.001138 99.604096-183.189989 203.576792-183.189988 203.576792l-108.050057-105.428897 60.869169-48.054607 52.131969 49.219567s96.982935-83.585893 178.238907-130.76678z" fill="#25C064" p-id="34757"></path></svg>